<?xml version="1.0" standalone="no"?>
<!DOCTYPE svg PUBLIC "-//W3C//DTD SVG 20010904//EN"
 "http://www.w3.org/TR/2001/REC-SVG-20010904/DTD/svg10.dtd">
<svg version="1.0" xmlns="http://www.w3.org/2000/svg"
 width="1174.000000pt" height="1280.000000pt" viewBox="0 0 1174.000000 1280.000000"
 preserveAspectRatio="xMidYMid meet">
<metadata>
Created by potrace 1.15, written by Peter Selinger 2001-2017
</metadata>
<g transform="translate(0.000000,1280.000000) scale(0.100000,-0.100000)"
fill="rgb(0, 150, 0)" stroke="none">
<path d="M4425 12777 c-33 -13 -100 -45 -150 -71 -379 -205 -660 -325 -1163
-497 -373 -127 -591 -189 -982 -279 -288 -67 -505 -172 -631 -306 -96 -103
-206 -267 -284 -424 -74 -146 -225 -631 -225 -720 0 -46 -33 -122 -85 -197
-57 -80 -108 -180 -125 -243 -7 -25 -18 -91 -25 -147 -11 -93 -16 -106 -45
-140 -74 -83 -112 -218 -125 -443 -14 -224 -31 -299 -160 -715 -208 -666 -337
-1170 -379 -1470 -23 -170 -40 -450 -41 -665 0 -177 2 -198 20 -229 14 -24 33
-38 60 -47 22 -7 101 -34 175 -60 494 -172 676 -225 830 -243 47 -6 171 -15
275 -21 553 -30 550 -30 628 -94 23 -19 75 -50 115 -69 40 -20 79 -41 87 -47
31 -25 13 -119 -73 -390 -68 -214 -77 -270 -76 -495 0 -192 16 -350 44 -445
18 -61 11 -118 -29 -243 -52 -160 -59 -187 -76 -282 -33 -180 -11 -367 65
-555 23 -58 55 -138 71 -177 48 -120 48 -167 0 -310 -67 -202 -76 -331 -33
-468 25 -76 39 -266 52 -720 13 -415 25 -626 45 -738 27 -155 83 -358 110
-399 49 -73 47 -73 525 -73 550 -1 623 -10 1165 -155 339 -91 577 -141 775
-164 74 -9 172 -21 216 -27 120 -17 1068 -5 1274 16 501 50 805 136 1575 445
578 232 843 312 1155 350 140 17 267 39 295 52 28 13 47 56 66 153 21 108 18
684 -4 880 -22 184 -49 322 -82 414 -14 37 -25 85 -25 105 0 22 29 111 70 218
122 312 150 436 150 668 0 179 -9 228 -60 346 -52 118 -52 173 -5 435 53 291
63 427 71 987 l7 502 119 0 c216 0 330 38 475 159 45 37 105 78 135 89 29 12
139 40 244 61 246 51 330 72 543 133 452 128 734 261 757 354 25 99 -230 1009
-571 2044 -63 190 -121 372 -129 405 -11 44 -15 109 -14 250 2 218 -8 268 -82
385 -78 124 -99 179 -115 296 -71 508 -233 1141 -356 1388 -152 305 -399 488
-961 709 -91 37 -382 142 -645 235 -750 265 -940 346 -1193 509 -161 103 -181
113 -229 113 -22 0 -97 -21 -168 -46 -241 -86 -481 -136 -808 -170 -239 -25
-777 -25 -955 -1 -299 42 -516 107 -849 256 -62 28 -127 51 -145 50 -17 0 -58
-10 -91 -22z m135 -344 c131 -219 259 -382 441 -559 197 -191 322 -277 501
-344 298 -112 466 -120 743 -33 113 35 332 142 444 217 163 109 511 444 670
645 36 46 73 92 81 103 14 18 19 16 111 -46 110 -73 139 -105 139 -150 0 -61
-147 -315 -287 -494 -295 -378 -737 -627 -1229 -693 -146 -19 -423 -7 -573 26
-494 106 -925 402 -1218 835 -116 172 -195 331 -197 399 -1 40 3 47 41 79 37
31 228 149 245 151 4 1 43 -61 88 -136z m378 -47 c324 -106 392 -118 769 -137
172 -8 291 -8 483 0 451 21 624 40 870 101 68 16 133 30 143 30 17 0 17 -2 -3
-29 -50 -72 -271 -288 -320 -315 -66 -36 -292 -93 -423 -106 -170 -18 -717
-25 -847 -11 -214 22 -545 107 -644 165 -25 14 -65 52 -89 84 -63 82 -164 227
-182 262 -14 27 -14 30 0 30 9 0 118 -33 243 -74z m-813 -236 c43 -80 96 -171
118 -204 62 -92 202 -249 353 -397 220 -214 291 -268 472 -359 306 -153 573
-219 879 -220 460 0 900 161 1259 463 203 170 366 373 525 656 35 62 73 120
85 128 19 12 47 4 285 -86 145 -54 433 -158 639 -231 980 -346 1165 -433 1380
-649 79 -80 104 -113 147 -196 46 -89 143 -347 143 -380 0 -35 -291 -516 -338
-558 -19 -18 -20 -17 -30 42 -22 126 -94 235 -163 246 -100 17 -204 -27 -197
-84 3 -26 4 -26 93 -26 118 -1 112 1 135 -44 24 -48 35 -132 26 -195 -6 -41
-13 -50 -49 -73 -23 -14 -106 -91 -183 -170 -78 -78 -146 -143 -153 -143 -24
0 -13 80 52 390 33 153 37 184 26 201 -23 37 -85 -58 -118 -181 -30 -112 -87
-424 -111 -605 -30 -232 -47 -548 -80 -1440 -40 -1105 -60 -1613 -70 -1773
-16 -234 -49 -351 -417 -1452 -421 -1263 -610 -1736 -937 -2342 l-48 -88 40 0
c33 0 45 6 72 37 152 172 440 835 776 1783 48 135 122 340 166 455 44 116 118
316 165 445 86 236 126 330 142 330 15 0 21 -103 21 -400 0 -412 -15 -600 -80
-975 -57 -327 -108 -468 -317 -875 -179 -349 -366 -677 -633 -1115 -144 -234
-212 -357 -225 -402 -8 -31 35 -54 61 -32 78 65 633 1013 956 1634 173 334
181 343 223 260 18 -35 20 -59 19 -195 0 -129 -5 -173 -26 -266 -45 -193 -175
-510 -287 -702 -61 -104 -160 -219 -408 -474 -209 -215 -303 -325 -303 -354 0
-31 58 -4 152 73 95 77 433 425 551 568 55 66 103 121 107 123 17 7 69 -193
90 -343 37 -272 54 -759 30 -846 -13 -48 -41 -59 -166 -69 -291 -24 -630 -128
-1299 -397 -691 -279 -1160 -400 -1704 -443 -204 -15 -760 -13 -916 5 -295 33
-612 98 -1025 210 -151 41 -331 86 -400 99 -263 53 -624 86 -951 86 -179 0
-198 4 -215 47 -22 51 -51 239 -68 433 -21 242 -25 318 -37 695 -11 356 -24
478 -64 595 -31 89 -29 125 16 256 81 240 78 367 -16 584 -124 286 -124 451 1
831 30 91 54 175 54 186 0 12 -13 76 -29 144 -41 174 -55 299 -48 448 6 140
22 227 74 405 20 67 47 164 60 216 13 52 29 99 34 105 15 15 35 -15 54 -85 35
-133 246 -715 381 -1050 190 -474 688 -1350 990 -1740 119 -154 344 -383 367
-374 37 14 7 77 -96 201 -218 263 -307 387 -454 633 -316 531 -717 1335 -858
1721 -159 434 -498 1522 -551 1769 -80 372 -124 685 -128 923 -2 120 -11 225
-29 347 -60 403 -82 737 -74 1155 6 285 16 418 62 825 23 205 30 426 16 501
-28 140 -82 227 -189 306 -43 31 -96 74 -118 95 -48 46 -95 60 -145 44 -48
-16 -66 -59 -79 -196 -13 -134 -28 -220 -39 -220 -25 0 -103 114 -176 260 -72
141 -67 180 46 419 112 235 245 403 386 487 112 66 177 88 495 164 502 121
1189 344 1593 518 77 33 143 57 146 54 4 -4 41 -72 84 -152z m1273 -326 c118
-31 278 -43 552 -44 274 0 504 15 603 41 43 11 82 17 86 14 16 -17 -178 -130
-324 -188 -146 -58 -233 -72 -445 -72 -177 1 -188 2 -252 27 -163 65 -371 186
-403 235 l-17 26 51 -7 c29 -4 95 -18 149 -32z m-3590 -1191 c51 -36 118 -118
147 -178 34 -68 49 -186 41 -320 -9 -144 -24 -230 -45 -257 l-18 -21 -50 27
c-131 72 -293 216 -349 312 -35 60 -24 75 52 67 54 -6 54 -6 68 28 8 19 19 77
26 129 12 95 35 214 46 231 10 17 46 9 82 -18z m8664 -214 c41 -112 106 -460
133 -719 22 -209 27 -223 90 -289 29 -31 63 -76 76 -101 23 -43 24 -52 21
-226 -3 -217 -1 -222 142 -659 207 -630 479 -1522 480 -1574 1 -33 -2 -35 -59
-58 -117 -46 -352 -115 -682 -198 -332 -85 -405 -109 -417 -140 -22 -58 68
-49 449 46 110 28 277 72 372 100 188 54 328 89 356 89 20 0 57 -72 78 -151
17 -64 0 -88 -96 -135 -88 -42 -396 -145 -611 -204 -198 -54 -525 -120 -597
-120 l-57 0 0 33 c0 17 7 145 15 282 30 524 46 1207 66 2890 l10 900 51 80
c82 131 139 206 151 202 7 -2 19 -24 29 -48z m-9186 -81 c31 -51 88 -130 126
-175 102 -120 310 -317 427 -403 l102 -75 -5 -65 c-3 -36 -11 -126 -17 -200
-22 -251 0 -1003 41 -1400 11 -107 31 -330 45 -495 14 -165 32 -351 40 -413
23 -181 117 -568 239 -985 60 -206 60 -257 -1 -257 -45 0 -91 28 -175 108
-112 106 -120 108 -318 92 -289 -24 -526 -1 -851 80 -289 72 -680 220 -732
277 -21 24 -25 96 -7 118 23 28 48 22 514 -126 47 -15 103 -11 110 7 23 59
-88 119 -488 264 l-118 43 6 61 c14 126 92 527 146 754 70 287 223 815 314
1081 74 217 129 489 146 730 5 70 14 140 20 155 6 16 35 62 65 103 66 91 90
161 100 298 8 119 19 147 85 231 66 84 89 129 96 189 8 74 13 95 24 95 5 0 34
-42 66 -92z m8849 -410 c16 -72 -34 -3172 -55 -3404 -14 -159 -52 -232 -163
-316 -83 -64 -190 -116 -273 -133 -78 -16 -284 -34 -284 -25 0 4 7 51 15 106
35 239 54 795 65 1854 11 1072 24 1279 85 1405 40 82 338 445 366 445 36 0 8
-214 -100 -770 -85 -438 -138 -660 -207 -872 -62 -191 -104 -361 -104 -418 0
-39 4 -52 22 -64 25 -18 41 -9 63 35 26 50 135 459 239 894 67 281 107 498
167 889 41 274 52 308 117 379 33 35 39 34 47 -5z m-97 -3826 c8 -57 -133
-218 -235 -268 -75 -37 -199 -44 -329 -19 -93 18 -134 36 -134 59 0 26 30 38
112 47 116 13 289 70 431 145 67 35 129 62 137 61 8 -1 16 -12 18 -25z"/>
<path d="M3056 5482 c-9 -29 25 -116 119 -303 575 -1145 1652 -2408 2685
-3147 161 -116 259 -169 325 -179 43 -5 45 -4 45 19 0 35 -45 74 -305 263
-374 272 -511 386 -827 688 -355 338 -698 730 -1040 1185 -288 382 -509 728
-767 1196 -124 225 -174 296 -211 296 -10 0 -21 -8 -24 -18z"/>
<path d="M2403 2124 c-8 -22 16 -40 172 -123 195 -105 980 -467 1320 -609 370
-155 635 -231 708 -203 73 28 -1 71 -298 176 -403 142 -868 335 -1414 587
-415 191 -473 211 -488 172z"/>
</g>
</svg>
